<?xml version="1.0" encoding="utf-8"?>
<svg version="1.1" xmlns="http://www.w3.org/2000/svg" xmlns:xlink="http://www.w3.org/1999/xlink" x="0px" y="0px" width="544.2px"
     height="544.2px" viewBox="0 0 544.2 544.2" style="overflow:visible;enable-background:new 0 0 544.2 544.2;"
     xml:space="preserve">
<g>
    <path style="fill:#DB6440;" d="M272.1,0C2.1,0,0,121.8,0,272.1s2.1,272.1,272.1,272.1s272.1-121.8,272.1-272.1S542.1,0,272.1,0z"/>
    <path style="fill:#FFFFFF;" d="M385.6,121.4c-4.3,0-8.4,1.7-11.5,4.7l-69.6,69.6h-64.9l-69.6-69.6c-3-3-7.2-4.7-11.5-4.7
        c-9,0-16.2,7.3-16.2,16.2v58.1v64.9v32.4c0,71.6,58.1,129.7,129.7,129.7s129.7-58.1,129.7-129.7v-32.4v-64.9v-58.1
        C401.8,128.7,394.6,121.4,385.6,121.4z M214.2,310c-13.7,0-24.8-11.1-24.8-24.8c0-13.7,11.1-24.8,24.8-24.8s24.8,11.1,24.8,24.8
        C239,298.9,227.9,310,214.2,310z M338.3,310c-13.7,0-24.8-11.1-24.8-24.8c0-13.7,11.1-24.8,24.8-24.8c13.7,0,24.8,11.1,24.8,24.8
        C363.1,298.9,352,310,338.3,310z"/>
</g>
</svg>
